<?xml version="1.0" encoding="UTF-8" standalone="no"?>
<svg width="489px" height="543px" viewBox="0 0 489 543" version="1.1" xmlns="http://www.w3.org/2000/svg" xmlns:xlink="http://www.w3.org/1999/xlink">
    <!-- Generator: Sketch 3.8.3 (29802) - http://www.bohemiancoding.com/sketch -->
    <title>Group 2</title>
    <desc>Created with Sketch.</desc>
    <defs>
        <filter x="-50%" y="-50%" width="200%" height="200%" filterUnits="objectBoundingBox" id="filter-1">
            <feGaussianBlur stdDeviation="0" in="SourceGraphic"></feGaussianBlur>
        </filter>
    </defs>
    <g id="Page-1" stroke="none" stroke-width="1" fill="none" fill-rule="evenodd">
        <g id="Desktop-Copy-32" transform="translate(-266.000000, -112.000000)">
            <g id="Group-2" transform="translate(267.000000, 113.000000)">
                <polygon id="Path-169-Copy" stroke="#FFFFFF" stroke-width="2" opacity="0.48828125" points="250.999996 5.87109365 245.581536 0.770345107 0.42411404 244.4449 129.324874 401.228611 244.999996 539.925802 463.183605 244.960943"></polygon>
                <path d="M439,211.675781 C439,211.675781 454.443515,211.675781 456.046055,211.675781 C462.255899,211.675781 467.397306,212.575954 471.47043,214.376326 C475.543553,216.176698 478.765279,218.660508 481.135703,221.827829 C483.506128,224.995151 485.158723,228.7292 486.093538,233.030089 C487.028353,237.330978 487.495754,242.01521 487.495754,247.082924 C487.495754,251.683875 487.028353,256.184738 486.093538,260.585648 C485.158723,264.986558 483.472742,268.903975 481.035545,272.338019 C478.598348,275.772062 475.226386,278.539259 470.919559,280.639693 C466.612732,282.740128 461.087389,283.790329 454.343365,283.790329 C453.275004,283.790329 452.966064,283.756989 451.296751,283.690309 C449.627438,283.623628 454.28402,284.069486 452.547935,283.969466 C450.811849,283.869445 441.184502,284.231593 439.581961,284.131572 C439.382332,284.119112 439.403806,273.734241 439.403806,273.734241 L443.866935,268.027393 L442.454642,223.263126 L439,217.77205 L439,211.675781 Z M451.662883,231.697166 C451.662883,231.697166 456.297476,237.885679 455.704574,237.951467 L456.919678,255.924252 L451.781214,262.075881 L452.195995,271.822641 C452.459507,271.888428 452.054479,271.937768 452.581504,271.970662 C453.108528,272.003555 453.652014,272.036449 454.211978,272.069342 C454.771942,272.102236 455.315428,272.135129 455.842452,272.168023 C456.369477,272.200916 456.797678,272.217363 457.127068,272.217363 C460.947997,272.217363 463.994812,271.51016 466.267606,270.095735 C468.5404,268.681309 470.236735,266.822847 471.356662,264.520293 C472.476589,262.21774 473.201237,259.619183 473.530628,256.724544 C473.860018,253.829905 474.024711,250.93531 474.024711,248.040671 C474.024711,245.540756 473.876487,242.942198 473.580036,240.244921 C473.283585,237.547644 472.591875,235.080659 471.504887,232.843893 C470.417899,230.607127 468.787441,228.765112 466.613464,227.317792 C464.439488,225.870473 451.317647,225.146824 451.317647,225.146824 L451.662883,231.697166 Z" id="D-Copy" fill="#FFFFFF" filter="url(#filter-1)"></path>
                <path d="M114.61452,446.38651 L114.811141,454.633229 L115.204385,454.633229 L116.875668,446.877386 L122.774314,428.616796 L132.802012,428.616796 L138.307415,446.877386 L140.077009,454.633229 L140.470252,454.633229 L140.666874,446.19016 C140.666874,446.19016 143.507912,427.385299 144.148187,418.502313 C144.425479,414.655245 156.969421,435.912941 156.969421,435.912941 L148.728357,476.722653 L137.324307,476.722653 L129.951,455.02593 L127.689852,445.601109 L127.198298,445.601109 L124.83884,455.02593 L116.875668,476.722653 L105.078375,476.722653 L98,408 L111.468575,408 L114.61452,446.38651 Z" id="W" fill="#FFFFFF"></path>
            </g>
        </g>
    </g>
</svg>