<?xml version="1.0" encoding="UTF-8" standalone="no"?>
<svg width="420px" height="488px" viewBox="0 0 420 488" version="1.1" xmlns="http://www.w3.org/2000/svg" xmlns:xlink="http://www.w3.org/1999/xlink">
    <!-- Generator: Sketch 3.8.3 (29802) - http://www.bohemiancoding.com/sketch -->
    <title>Group</title>
    <desc>Created with Sketch.</desc>
    <defs></defs>
    <g id="Page-1" stroke="none" stroke-width="1" fill="none" fill-rule="evenodd">
        <g id="Desktop-Copy-32" transform="translate(-287.000000, -138.000000)">
            <g id="Group" transform="translate(288.000000, 139.000000)">
                <polyline id="Path-178" stroke="#FFFFFF" points="0.68461818 219.997648 50.9932674 239.066965 222.060996 237.006894 222.060999 1.42815519 141.395568 80.5842219 223.000002 130.178079 112.958297 130.178083 153.69144 172.269996 48.3203108 173.269996 48.9932692 238.624994"></polyline>
                <path d="M222.42055,0.518306735 L1.02347774,220.01353 C1.02347774,220.01353 122.837759,369.364312 155.449475,408.702144 C188.061191,448.039975 222.420557,484.671871 222.420557,484.671871 L269.144168,420.919901 L417.675791,222.013531 L222.42055,0.518306735 Z" id="Path-169" stroke="#FFFFFF" stroke-width="2"></path>
                <path d="M126.150399,91.0615874 L136.789038,91.0615874 L136.789038,81.6000312 L136.789038,42.124357 L126.988079,42.124357 L126.988079,54.4606172 L115.757812,54.4606172 L115.757812,30.9095751 L167.173957,30.9095751 L159.394338,42.124357 L150.775824,42.124357 L150.775824,51.5250782 L150.775824,79.0000467 L150.775824,91.0615874 L162.31237,91.0615874 L162.31237,98.2763693 C162.31237,98.2763693 150.125972,99.2763693 141.800781,99.2763693 C133.47559,99.2763693 125.150399,104.276369 125.150399,104.276369 L126.150399,91.0615874 Z" id="T" fill="#FFFFFF"></path>
                <polygon id="Rectangle-21" fill="#FFFFFF" points="129 393.652411 144.026179 393 144.026179 400.068227 144.026178 422.704947 129 402.072133"></polygon>
                <polyline id="Rectangle-21-Copy" fill="#FFFFFF" points="175.916625 35.7824133 175.181275 46.0932621 156.04298 46.1722863 156.982895 36.8243197 175.916625 35.7824133"></polyline>
                <polygon id="Rectangle-1280" fill="#FFFFFF" points="169 41 179 41 176 47 169 51"></polygon>
                <path d="M151.956304,238.087392 C190.640369,238.087392 222,206.727761 222,168.043696 C222,129.359631 190.640369,98 151.956304,98 C113.272239,98 81.9126085,129.359631 81.9126085,168.043696 C81.9126085,206.727761 113.272239,238.087392 151.956304,238.087392 Z" id="Oval-390" stroke="#FFFFFF"></path>
            </g>
        </g>
    </g>
</svg>