<?xml version="1.0" encoding="UTF-8" standalone="no"?>
<svg width="343px" height="409px" viewBox="0 0 343 409" version="1.1" xmlns="http://www.w3.org/2000/svg" xmlns:xlink="http://www.w3.org/1999/xlink">
    <!-- Generator: Sketch 3.7.1 (28215) - http://www.bohemiancoding.com/sketch -->
    <title>Group</title>
    <desc>Created with Sketch.</desc>
    <defs></defs>
    <g id="Page-1" stroke="none" stroke-width="1" fill="none" fill-rule="evenodd">
        <g id="Desktop-Copy-30" transform="translate(-131.000000, -197.000000)" stroke="#FFFFFF">
            <g id="Group" transform="translate(132.000000, 198.000000)">
                <polygon id="Path-169" stroke-width="2" points="179.504719 0.866476062 0.651368202 177.353916 166.036142 406 340.633482 202.882246"></polygon>
                <polyline id="Path-178" points="2 180.638423 42.2042714 195.874929 178.913436 194.228919 178.913438 6 126.43676 71.6432227 169.317324 108.872015 91.7237656 108.872015 124.275749 146.099251 53.1926069 144.401723 53.1926057 194.228913"></polyline>
                <path d="M121,196 C153.032515,196 179,170.032515 179,138 C179,105.967485 153.032515,80 121,80 C88.9674845,80 63,105.967485 63,138 C63,170.032515 88.9674845,196 121,196 Z" id="Oval-390"></path>
            </g>
        </g>
    </g>
</svg>