<?xml version="1.0" encoding="UTF-8" standalone="no"?>
<svg width="133px" height="105px" viewBox="0 0 133 105" version="1.1" xmlns="http://www.w3.org/2000/svg" xmlns:xlink="http://www.w3.org/1999/xlink">
    <!-- Generator: Sketch 3.8.3 (29802) - http://www.bohemiancoding.com/sketch -->
    <title>Group 20</title>
    <desc>Created with Sketch.</desc>
    <defs>
        <polygon id="path-1" points="0 106 132.764 106 132.764 0.53 0 0.53"></polygon>
    </defs>
    <g id="Page-1" stroke="none" stroke-width="1" fill="none" fill-rule="evenodd">
        <g id="Artboard-23" transform="translate(-491.000000, -206.000000)">
            <g id="Group-20" transform="translate(491.000000, 205.470000)">
                <path d="M7.1611,42.5461 C7.4281,42.5171 7.8281,42.4801 8.3621,42.4351 C8.8961,42.3911 9.4441,42.3681 10.0081,42.3681 C11.6981,42.3681 13.0331,42.6951 14.0121,43.3471 C14.9901,44.0001 15.7241,44.8301 16.2131,45.8381 C16.7031,46.8461 17.0141,47.9591 17.1471,49.1741 C17.2241,49.8731 17.2721,50.5531 17.3051,51.2221 L23.7181,51.2221 C23.6471,49.5251 23.4541,47.9281 23.1301,46.4391 C22.7151,44.5251 21.9801,42.8651 20.9281,41.4571 C19.8751,40.0481 18.4441,38.9431 16.6361,38.1431 C14.8271,37.3421 12.5431,36.9421 9.7861,36.9421 C9.0741,36.9421 8.2651,36.9571 7.3611,36.9861 C6.4561,37.0161 5.5821,37.0531 4.7371,37.0971 C3.8921,37.1421 3.1361,37.1941 2.4691,37.2531 C1.8011,37.3131 1.3341,37.3571 1.0671,37.3861 L1.0671,51.2221 L7.1611,51.2221 L7.1611,42.5461 L7.1611,42.5461 Z" id="Fill-4" fill="#FEFEFE"></path>
                <mask id="mask-2" fill="white">
                    <use xlink:href="#path-1"></use>
                </mask>
                <g id="Clip-7"></g>
                <polygon id="Fill-6" fill="#FEFEFE" mask="url(#mask-2)" points="27.756 51.221 33.85 51.221 33.85 37.386 27.756 37.386"></polygon>
                <polygon id="Fill-8" fill="#FEFEFE" mask="url(#mask-2)" points="44.214 51.221 49.997 51.221 49.997 37.386 44.214 37.386"></polygon>
                <polygon id="Fill-9" fill="#FEFEFE" mask="url(#mask-2)" points="68.6338 42.2795 72.8598 42.2795 72.8598 47.6615 77.7528 47.6615 77.7528 37.3865 53.3768 37.3865 53.3768 47.6615 58.2698 47.6615 58.2698 42.2795 62.5398 42.2795 62.5398 51.2215 68.6338 51.2215"></polygon>
                <path d="M87.8056,48.173 C88.2206,46.824 88.7986,45.704 89.5406,44.815 C90.2816,43.925 91.1486,43.266 92.1426,42.836 C93.1356,42.406 94.2106,42.191 95.3676,42.191 C96.3466,42.191 97.2946,42.265 98.2146,42.413 L98.2146,47.484 L103.1076,47.484 L103.1076,38.232 C102.3066,37.846 101.2906,37.505 100.0596,37.209 C98.8286,36.912 97.3246,36.764 95.5456,36.764 C93.8546,36.764 92.1346,37.038 90.3856,37.587 C88.6356,38.136 87.0496,39.04 85.6256,40.3 C84.2026,41.561 83.0376,43.221 82.1346,45.282 C81.4076,46.937 80.9876,48.927 80.8446,51.222 L87.2586,51.222 C87.3506,50.1 87.5276,49.077 87.8056,48.173" id="Fill-10" fill="#FEFEFE" mask="url(#mask-2)"></path>
                <polygon id="Fill-11" fill="#FEFEFE" mask="url(#mask-2)" points="130.0625 37.3864 123.9685 37.3864 123.9685 50.0634 113.9155 50.0634 113.9155 37.3864 107.8215 37.3864 107.8215 51.2214 130.0625 51.2214"></polygon>
                <path d="M20.0494,51.8638 C20.0494,53.1688 19.9754,54.4738 19.8264,55.7788 C19.6784,57.0838 19.3524,58.2548 18.8484,59.2918 C18.3434,60.3308 17.5804,61.1678 16.5574,61.8048 C15.5344,62.4438 14.1624,62.7618 12.4434,62.7618 C12.2944,62.7618 12.1014,62.7548 11.8644,62.7398 C11.6274,62.7248 11.3824,62.7108 11.1314,62.6948 C10.8784,62.6808 10.6334,62.6658 10.3974,62.6508 C10.1594,62.6358 9.9814,62.6138 9.8624,62.5838 L9.8624,50.3978 L3.7694,50.3978 L3.7694,67.7438 C4.1534,67.8028 4.7034,67.8548 5.4154,67.8998 C6.1264,67.9438 6.8674,67.9888 7.6384,68.0328 C8.4094,68.0768 9.1664,68.1138 9.9074,68.1438 C10.6484,68.1738 11.2564,68.1888 11.7314,68.1888 C14.7264,68.1888 17.1804,67.7218 19.0924,66.7868 C21.0064,65.8528 22.5034,64.6228 23.5854,63.0948 C24.6684,61.5688 25.4164,59.8258 25.8324,57.8688 C26.2474,55.9118 26.4544,53.9098 26.4544,51.8638 C26.4544,51.3658 26.4404,50.8788 26.4204,50.3978 L20.0064,50.3978 C20.0314,50.8928 20.0494,51.3848 20.0494,51.8638" id="Fill-12" fill="#FEFEFE" mask="url(#mask-2)"></path>
                <path d="M46.9156,56.0449 C46.9156,58.2689 46.5226,59.9529 45.7366,61.0939 C44.9506,62.2359 43.6686,62.8059 41.8896,62.8059 C40.0506,62.8059 38.7016,62.2729 37.8416,61.2049 C36.9806,60.1369 36.5516,58.4179 36.5516,56.0449 L36.5516,50.3979 L30.4576,50.3979 L30.4576,57.2459 C30.4576,60.8349 31.3836,63.5629 33.2376,65.4309 C35.0906,67.2989 37.9446,68.2329 41.8006,68.2329 C43.4016,68.2329 44.8696,67.9949 46.2046,67.5219 C47.5386,67.0469 48.6876,66.3279 49.6516,65.3639 C50.6146,64.3999 51.3636,63.1849 51.8976,61.7159 C52.4316,60.2489 52.6986,58.5069 52.6986,56.4899 L52.6986,50.3979 L46.9156,50.3979 L46.9156,56.0449 Z" id="Fill-13" fill="#FEFEFE" mask="url(#mask-2)"></path>
                <polygon id="Fill-14" fill="#FEFEFE" mask="url(#mask-2)" points="65.2417 62.8062 60.1707 62.8062 60.1707 67.6992 76.3617 67.6992 76.3617 62.8062 71.3357 62.8062 71.3357 50.3972 65.2417 50.3972"></polygon>
                <path d="M83.479,52.1309 C83.479,55.0669 83.879,57.5649 84.68,59.6259 C85.481,61.6869 86.548,63.3619 87.883,64.6519 C89.217,65.9429 90.767,66.8769 92.531,67.4549 C94.295,68.0329 96.156,68.3219 98.114,68.3219 C99.655,68.3219 101.161,68.1289 102.628,67.7439 C104.096,67.3589 105.304,66.8249 106.254,66.1429 L106.254,57.2459 L101.361,57.2459 L101.361,62.6289 C100.441,62.8059 99.493,62.8949 98.514,62.8949 C97.149,62.8949 95.934,62.6359 94.866,62.1169 C93.799,61.5979 92.894,60.8639 92.153,59.9149 C91.412,58.9659 90.848,57.8319 90.463,56.5119 C90.077,55.1929 89.884,53.7319 89.884,52.1309 C89.884,51.5229 89.915,50.9519 89.961,50.3979 L83.546,50.3979 C83.511,50.9609 83.479,51.5289 83.479,52.1309" id="Fill-15" fill="#FEFEFE" mask="url(#mask-2)"></path>
                <polygon id="Fill-16" fill="#FEFEFE" mask="url(#mask-2)" points="110.5235 67.6992 116.6175 67.6992 116.6175 54.6662 126.6705 54.6662 126.6705 67.6992 132.7645 67.6992 132.7645 50.3972 110.5235 50.3972"></polygon>
                <polygon id="Fill-17" fill="#FEFEFE" mask="url(#mask-2)" points="21.1167 90.7212 21.0277 94.5472 20.8497 94.5472 20.0497 91.0332 17.5577 82.7592 13.0207 82.7592 10.3517 91.0332 9.5957 94.5472 9.4177 94.5472 9.3287 90.8102 7.9057 73.4182 1.8117 73.4182 5.0147 104.5552 10.3517 104.5552 13.9547 94.7242 15.0227 90.4542 15.2447 90.4542 16.2687 94.7242 19.6047 104.5552 24.7637 104.5552 27.9667 73.4182 22.3627 73.4182"></polygon>
                <polygon id="Fill-18" fill="#FEFEFE" mask="url(#mask-2)" points="37.441 91.522 50.652 91.522 50.652 86.095 37.441 86.095 37.441 78.845 51.764 78.845 51.764 73.418 31.347 73.418 31.347 104.555 51.987 104.555 51.987 99.128 37.441 99.128"></polygon>
                <path d="M72.7144,97.4185 C72.3874,97.9765 71.9584,98.4395 71.4244,98.8065 C70.8904,99.1725 70.2754,99.4445 69.5784,99.6205 C68.8814,99.7965 68.1624,99.8845 67.4214,99.8845 C67.1244,99.8845 66.7764,99.8775 66.3764,99.8635 C65.9754,99.8485 65.5894,99.8345 65.2194,99.8185 C64.8484,99.8045 64.5004,99.7815 64.1734,99.7525 C63.8474,99.7235 63.6104,99.6795 63.4624,99.6205 L63.4624,91.1215 L66.7094,91.1215 C67.4804,91.1215 68.2514,91.1665 69.0224,91.2535 C69.7934,91.3415 70.4904,91.5405 71.1134,91.8485 C71.7354,92.1575 72.2394,92.5905 72.6254,93.1475 C73.0104,93.7055 73.2034,94.4685 73.2034,95.4375 C73.2034,96.2005 73.0404,96.8615 72.7144,97.4185 L72.7144,97.4185 Z M63.4624,78.2645 C63.8254,78.2065 64.3394,78.1625 65.0044,78.1335 C65.6704,78.1045 66.3964,78.0885 67.1824,78.0885 C67.8784,78.0885 68.5434,78.1475 69.1784,78.2655 C69.8144,78.3825 70.3814,78.5875 70.8804,78.8805 C71.3794,79.1745 71.7794,79.5705 72.0834,80.0695 C72.3854,80.5685 72.5364,81.1985 72.5364,81.9615 C72.5364,83.1065 72.1204,84.0315 71.2894,84.7355 C70.4574,85.4395 69.4664,85.9685 68.3174,86.3195 C67.9544,86.3775 67.4924,86.4225 66.9334,86.4515 C66.3734,86.4805 65.8814,86.4955 65.4584,86.4955 L63.4624,86.4955 L63.4624,78.2645 Z M77.6964,90.3655 C77.1034,89.7425 76.4064,89.2535 75.6064,88.8975 C74.8054,88.5425 73.9604,88.2905 73.0704,88.1415 L73.0704,87.8745 C74.0784,87.6375 74.9384,87.2735 75.6504,86.7845 C76.3614,86.2955 76.9404,85.7325 77.3854,85.0945 C77.8304,84.4575 78.1484,83.7525 78.3414,82.9815 C78.5344,82.2105 78.6304,81.4395 78.6304,80.6685 C78.6304,79.1265 78.3034,77.8515 77.6514,76.8435 C76.9994,75.8355 76.1314,75.0495 75.0494,74.4855 C73.9664,73.9225 72.7364,73.5295 71.3584,73.3065 C69.9794,73.0845 68.5624,72.9735 67.1104,72.9735 C66.2494,72.9735 65.3814,72.9885 64.5074,73.0175 C63.6324,73.0475 62.7794,73.0915 61.9504,73.1505 C61.1194,73.2105 60.3404,73.2845 59.6144,73.3735 C58.8874,73.4625 58.2424,73.5515 57.6794,73.6405 L57.6794,104.3335 C58.4504,104.5105 59.3034,104.6445 60.2374,104.7325 C61.1714,104.8225 62.0904,104.8885 62.9954,104.9335 C63.8994,104.9775 64.7444,105.0005 65.5304,105.0005 L67.4654,105.0005 C69.0074,105.0005 70.5054,104.8225 71.9584,104.4665 C73.4114,104.1105 74.7084,103.5625 75.8504,102.8205 C76.9914,102.0795 77.9034,101.1235 78.5864,99.9515 C79.2684,98.7805 79.6094,97.3935 79.6094,95.7925 C79.6094,94.5765 79.4384,93.5235 79.0974,92.6345 C78.7564,91.7445 78.2894,90.9885 77.6964,90.3655 L77.6964,90.3655 Z" id="Fill-19" fill="#FEFEFE" mask="url(#mask-2)"></path>
                <polygon id="Fill-1" fill="#FEFEFE" mask="url(#mask-2)" points="0 0.5299 0 10.8049 4.892 10.8049 4.892 5.4229 9.163 5.4229 9.163 26.7739 4.092 26.7739 4.092 31.6669 20.283 31.6669 20.283 26.7739 15.257 26.7739 15.257 5.4229 19.483 5.4229 19.483 10.8049 24.376 10.8049 24.376 0.5299"></polygon>
                <polygon id="Fill-2" fill="#FEFEFE" mask="url(#mask-2)" points="43.9029 0.5299 43.9029 13.2069 33.8499 13.2069 33.8499 0.5299 27.7559 0.5299 27.7559 31.6669 33.8499 31.6669 33.8499 18.6339 43.9029 18.6339 43.9029 31.6669 49.9969 31.6669 49.9969 0.5299"></polygon>
                <polygon id="Fill-3" fill="#FEFEFE" mask="url(#mask-2)" points="55.3338 0.5299 55.3338 31.6669 75.9738 31.6669 75.9738 26.2399 61.4278 26.2399 61.4278 18.6339 74.6388 18.6339 74.6388 13.2069 61.4278 13.2069 61.4278 5.9569 75.7508 5.9569 75.7508 0.5299"></polygon>
            </g>
        </g>
    </g>
</svg>